# xmcd
#
# Track frame offsets: 
#        150
#        13190
#        37770
#        54287
#        68442
#        93545
#        107465
#        133382
#        152925
#        167632
#
# Disc length: 2501 seconds
#
# Revision: 0
# Processed by: cddbd v1.5.2PL0 Copyright (c) Steve Scherf et al.
# Submitted via: ExactAudioCopy v0.95a5
#
DISCID=7809c30a
DTITLE=The Smokin'Joe Kubek Band - Steppin'Out Texas Style
DYEAR=1991
DGENRE=Blues
TTITLE0=Comin' Home Today
TTITLE1=I Wonder Why
TTITLE2=Natural Born Lover
TTITLE3=Everybody's Talkin
TTITLE4='Square Bizness
TTITLE5=Hands On It
TTITLE6=Smokin'Joe's Cafe
TTITLE7=That's All I Want
TTITLE8=Steppin' Out
TTITLE9=Lonely Days
EXTD=
EXTT0=
EXTT1=
EXTT2=
EXTT3=
EXTT4=
EXTT5=
EXTT6=
EXTT7=
EXTT8=
EXTT9=
PLAYORDER=
